# xmcd
#
# Track frame offsets: 
#        150
#        11184
#        26214
#        41645
#        63314
#        78413
#        92216
#        109249
#        125290
#        141716
#        159017
#        174989
#        192530
#        209968
#        226836
#        244993
#
# Disc length: 3471 seconds
#
# Revision: 2
# Processed by: cddbd v1.5.2PL0 Copyright (c) Steve Scherf et al.
# Submitted via: ExactAudioCopy v0.99pb4
#
DISCID=e80d8d10
DTITLE=Various Artist - Award Winning Country - The 90's [CD1]
DYEAR=2007
DGENRE=Country
TTITLE0=Alan Jackson - Chattahoochee
TTITLE1=LeAnn Rimes - The Light In Your Eyes
TTITLE2=Martina McBride - Independence Day
TTITLE3=Steve Wariner - Holes In The Floor Of Heaven
TTITLE4=Dwight Yoakam - Ain't That Lonely Yet
TTITLE5=Patty Loveless - Here I Am
TTITLE6=The Mavericks - Here Comes The Rain
TTITLE7=Wynonna - Only Love
TTITLE8=Sawer Brown - Treat Her Right
TTITLE9=Jo Dee Messina - Because You Love Me
TTITLE10=Troy Cassar-Daley - Little Things
TTITLE11=Gina Jeffreys - Didn't We Shine
TTITLE12=The Wilkinsons - 26c
TTITLE13=Lee Ann Womack - Never Again, Again
TTITLE14=Trisha Yearwood - How Do I Live
TTITLE15=Jason McCoy - Born Again In Dixieland
EXTD=
EXTT0=
EXTT1=
EXTT2=
EXTT3=
EXTT4=
EXTT5=
EXTT6=
EXTT7=
EXTT8=
EXTT9=
EXTT10=
EXTT11=
EXTT12=
EXTT13=
EXTT14=
EXTT15=
PLAYORDER=
